<?xml version="1.0" encoding="UTF-8" standalone="no"?>
<!-- Created with Inkscape (http://www.inkscape.org/) -->

<svg
   version="1.1"
   id="svg2"
   xml:space="preserve"
   width="1000"
   height="666.66663"
   viewBox="0 0 1000 666.66663"
   sodipodi:docname="8464c04b3eae3945f2a53af112d2ea59.ai"
   xmlns:inkscape="http://www.inkscape.org/namespaces/inkscape"
   xmlns:sodipodi="http://sodipodi.sourceforge.net/DTD/sodipodi-0.dtd"
   xmlns="http://www.w3.org/2000/svg"
   xmlns:svg="http://www.w3.org/2000/svg"><defs
     id="defs6"><clipPath
       clipPathUnits="userSpaceOnUse"
       id="clipPath18"><path
         d="M 0,500 H 750 V 0 H 0 Z"
         id="path16" /></clipPath><clipPath
       clipPathUnits="userSpaceOnUse"
       id="clipPath26"><path
         d="M 3.05176e-5,500 H 750 V -3.05176e-5 H 3.05176e-5 Z"
         id="path24" /></clipPath><clipPath
       clipPathUnits="userSpaceOnUse"
       id="clipPath46"><path
         d="M 0,500 H 750 V 0 H 0 Z"
         id="path44" /></clipPath></defs><sodipodi:namedview
     id="namedview4"
     pagecolor="#ffffff"
     bordercolor="#666666"
     borderopacity="1.0"
     inkscape:pageshadow="2"
     inkscape:pageopacity="0.0"
     inkscape:pagecheckerboard="0" /><g
     id="g8"
     inkscape:groupmode="layer"
     inkscape:label="8464c04b3eae3945f2a53af112d2ea59"
     transform="matrix(1.3333333,0,0,-1.3333333,0,666.66665)"><path
       d="M 0,0 H 750 V 500 H 0 Z"
       style="fill:#1e3e50;fill-opacity:1;fill-rule:nonzero;stroke:none"
       id="path10" /><g
       id="g12"><g
         id="g14"
         clip-path="url(#clipPath18)"><g
           id="g20"><g
             id="g22" /><g
             id="g38"><g
               clip-path="url(#clipPath26)"
               opacity="0.419998"
               id="g36"><g
                 transform="translate(45.3327,261.0442)"
                 id="g30"><path
                   d="m 0,0 c 17.446,-1.053 33.888,3.918 46.737,12.7 24.945,17.049 41.756,39.645 63.188,58.986 10.183,9.189 21.505,17.701 34.602,24.532 15.344,8.003 32.816,14.145 49.573,20.268 31.513,11.516 64.44,20.968 99.016,25.637 38.644,5.219 77.639,4.051 116.355,-0.106 41.68,-4.475 82.643,-12.083 124.306,-16.611 19.833,-2.154 41.154,-2.176 60.744,1.156 15.787,2.683 31.011,8.097 44.246,15.092 22.347,11.81 38.052,29.04 46.699,48.43 7.001,15.701 9.701,32.32 9.834,48.872 H -45.333 V 14.745 C -32.339,6.974 -16.719,1.008 0,0"
                   style="fill:#2a2b35;fill-opacity:1;fill-rule:nonzero;stroke:none"
                   id="path28" /></g><g
                 transform="translate(743.3845,237.9602)"
                 id="g34"><path
                   d="m 0,0 c -11.075,-17.3 -24.389,-33.075 -38.56,-47.903 -13.699,-14.335 -29.289,-26.741 -46.419,-36.737 -34.413,-20.081 -73.636,-29.901 -112.957,-34.369 -21.299,-2.421 -42.729,-3.051 -64.046,-0.451 -19.764,2.411 -39.068,7.468 -57.762,14.257 -20.032,7.275 -39.04,16.637 -58.339,25.597 -17.658,8.198 -37.101,15.364 -56.9,13.171 -21.409,-2.372 -37.141,-15.825 -52.538,-29.683 -5.393,-4.854 -10.964,-9.724 -17.75,-12.521 -7.402,-3.05 -15.464,-3.34 -23.358,-2.922 -23.061,1.224 -44.994,8.796 -67.407,13.642 -18.666,4.035 -37.783,5.59 -56.815,3.654 -32.642,-3.32 -65.248,-16.545 -88.081,-40.628 -0.838,-0.883 -1.652,-1.781 -2.453,-2.686 V -237.96 h 750 V 11.056 C 4.521,7.306 2.315,3.617 0,0"
                   style="fill:#2a2b35;fill-opacity:1;fill-rule:nonzero;stroke:none"
                   id="path32" /></g></g></g></g></g></g><g
       id="g40"><g
         id="g42"
         clip-path="url(#clipPath46)"><g
           id="g48"
           transform="translate(-3e-4,500.0002)"><path
             d="m 0,0 v -115.401 c 6.74,-5.746 14.167,-10.796 21.794,-15.091 32.264,-18.167 65.161,-32.594 104.486,-32.638 40.421,-0.045 79.141,19.96 112.381,38.418 31.519,17.502 112.344,113.19 326.145,49.244 93.068,-27.836 136.92,22.852 151.821,75.468 z"
             style="fill:#f59d39;fill-opacity:1;fill-rule:nonzero;stroke:none"
             id="path50" /></g><g
           id="g52"
           transform="translate(685.3571,465.4231)"><path
             d="m 0,0 c -7.62,-11.72 -12.604,-17.137 -28.153,-17.137 -15.548,0 -30.559,7.592 -28.153,17.137 2.407,9.544 13.772,11.848 28.153,17.137 C -13.771,22.425 7.62,11.72 0,0"
             style="fill:#ffffff;fill-opacity:1;fill-rule:nonzero;stroke:none"
             id="path54" /></g><g
           id="g56"
           transform="translate(627.5515,447.2219)"><path
             d="m 0,0 c -0.631,0.687 -10.456,4.424 -14.39,2.435 -2.912,-1.473 -0.422,-8.642 0.065,-9.147 2.635,-2.735 7.668,-3.232 11.003,-1.997 C 0.171,-7.416 3.153,-3.433 0,0"
             style="fill:#ffffff;fill-opacity:1;fill-rule:nonzero;stroke:none"
             id="path58" /></g><g
           id="g60"
           transform="translate(-3e-4,500.0002)"><path
             d="m 0,0 v -269.371 c 106.054,-47.916 62.91,106.241 194.378,187.758 29.411,18.236 70.674,-41.106 130.973,37.421 38.814,50.547 105.51,29.662 134.543,27.035 13.914,-1.26 27.163,2.967 30.855,17.157 z"
             style="fill:#0094d4;fill-opacity:1;fill-rule:nonzero;stroke:none"
             id="path62" /></g><g
           id="g64"
           transform="translate(238.3327,500.0002)"><path
             d="m 0,0 c -9.247,-21.131 -20.908,-34.466 -37.523,-42.957 -2.63,-1.344 -5.263,-2.681 -7.895,-4.018 -33.371,-16.945 -67.879,-34.466 -92.613,-65.768 -21.632,-27.373 -45.6,-70.079 -50.383,-103.78 -1.77,-12.469 -1.266,-25.371 -0.778,-37.847 0.885,-22.683 1.722,-44.108 -9.727,-63.814 -7.43,-12.787 -21.851,-21.772 -38.576,-24.036 -0.28,-0.038 -0.558,-0.058 -0.838,-0.092 v -3.027 c 0.413,0.047 0.826,0.091 1.24,0.147 17.636,2.386 32.876,11.92 40.768,25.501 11.888,20.46 10.994,43.326 10.131,65.438 -0.483,12.344 -0.981,25.107 0.751,37.308 4.704,33.146 28.384,75.285 49.765,102.342 24.326,30.785 58.535,48.155 91.617,64.954 2.635,1.337 5.271,2.675 7.903,4.02 17.591,8.99 29.803,23.125 39.424,45.629 z"
             style="fill:#ffffff;fill-opacity:1;fill-rule:nonzero;stroke:none"
             id="path66" /></g><g
           id="g68"
           transform="translate(749.9997,2e-4)"><path
             d="m 0,0 v 205.067 c -10.165,35.549 -26.85,101.194 -76.175,76.933 -31.729,-15.606 -13.997,-96.626 -51.566,-95.636 -79.323,2.091 37.297,-123.118 -126.527,-78.397 -14.897,4.066 -26.304,0.139 -37.948,-10 -13.973,-12.17 -23.326,-24.575 -42.276,-29.094 C -363.714,61.905 -599.495,168.478 -655.713,0 Z"
             style="fill:#e8373c;fill-opacity:1;fill-rule:nonzero;stroke:none"
             id="path70" /></g><g
           id="g72"
           transform="translate(570.7927,140.8508)"><path
             d="m 0,0 c 0,-13.426 -15.48,-24.311 -34.576,-24.311 -19.095,0 -34.575,10.885 -34.575,24.311 0,13.427 15.48,24.312 34.575,24.312 C -15.48,24.312 0,13.427 0,0"
             style="fill:#e8373c;fill-opacity:1;fill-rule:nonzero;stroke:none"
             id="path74" /></g><g
           id="g76"
           transform="translate(749.9997,372.7287)"><path
             d="m 0,0 c -0.968,-2.817 -1.745,-5.695 -2.375,-8.586 -1.036,-4.783 -1.681,-9.604 -2.243,-14.39 -0.559,-4.787 -1.03,-9.545 -1.645,-14.252 -0.616,-4.761 -1.17,-9.565 -1.633,-14.352 -0.942,-9.582 -1.652,-19.167 -2.346,-28.722 -0.681,-9.556 -1.369,-19.088 -2.352,-28.56 -0.463,-4.741 -1.067,-9.454 -1.678,-14.163 l -1.021,-7.051 -1.088,-7.11 c -1.446,-9.448 -2.987,-18.808 -5.384,-27.856 -1.228,-4.509 -2.589,-8.961 -4.324,-13.235 -1.741,-4.265 -3.758,-8.399 -6.234,-12.209 -1.201,-1.932 -2.575,-3.734 -3.973,-5.511 -1.456,-1.725 -2.946,-3.426 -4.596,-4.964 -1.611,-1.578 -3.356,-3.01 -5.133,-4.4 -0.933,-0.644 -1.804,-1.349 -2.784,-1.948 l -2.913,-1.826 c -7.786,-4.868 -16.571,-7.781 -25.646,-9.124 -4.565,-0.557 -9.188,-0.84 -13.858,-0.743 -4.67,0.106 -9.362,0.405 -14.08,0.916 -4.714,0.469 -9.451,1.081 -14.211,1.668 -4.747,0.605 -9.588,1.14 -14.295,1.671 -9.478,1.09 -19.005,2.463 -28.687,3.137 -9.661,0.697 -19.522,0.739 -29.221,-0.892 l -1.817,-0.287 -1.802,-0.385 c -1.199,-0.269 -2.408,-0.483 -3.595,-0.801 l -3.551,-0.98 -0.887,-0.247 -0.872,-0.299 -1.741,-0.599 c -4.666,-1.537 -9.182,-3.725 -13.342,-6.334 -8.358,-5.247 -15.362,-12.225 -21.45,-19.739 -3.042,-3.771 -5.853,-7.707 -8.527,-11.719 -2.689,-4.002 -5.229,-8.093 -7.681,-12.227 -4.891,-8.278 -9.5,-16.692 -14.266,-24.985 l -1.803,-3.099 -1.922,-2.986 -0.966,-1.49 -0.487,-0.742 -0.54,-0.704 -2.156,-2.815 c -0.688,-0.964 -1.498,-1.826 -2.29,-2.702 l -2.378,-2.624 -2.577,-2.425 -1.288,-1.214 -1.381,-1.107 -2.766,-2.205 -2.941,-1.965 -1.471,-0.98 -1.543,-0.864 -3.087,-1.722 -3.204,-1.501 c -0.536,-0.243 -1.059,-0.516 -1.606,-0.735 l -1.651,-0.64 c -1.103,-0.417 -2.191,-0.875 -3.306,-1.26 l -3.38,-1.057 c -1.118,-0.377 -2.272,-0.643 -3.418,-0.929 -1.15,-0.275 -2.285,-0.596 -3.443,-0.832 -2.327,-0.437 -4.63,-0.959 -6.983,-1.258 -4.671,-0.764 -9.409,-1.122 -14.14,-1.45 -18.989,-1.014 -38.065,0.645 -57.321,1.076 -4.821,0.068 -9.648,0.131 -14.498,-0.012 -2.421,-0.037 -4.85,-0.161 -7.277,-0.301 -1.213,-0.05 -2.429,-0.191 -3.643,-0.286 -1.215,-0.118 -2.429,-0.182 -3.643,-0.344 -9.768,-1.087 -19.285,-3.231 -28.592,-6.016 -9.311,-2.791 -18.452,-6.222 -27.218,-10.556 -8.729,-4.37 -17.126,-9.667 -24.366,-16.482 -2.991,-2.836 -5.752,-5.966 -8.118,-9.398 h 6.05 c 1.691,2.029 3.534,3.945 5.486,5.737 6.842,6.233 14.924,11.134 23.366,15.215 8.455,4.096 17.349,7.357 26.415,9.994 4.533,1.326 9.125,2.449 13.734,3.461 2.303,0.514 4.624,0.968 6.923,1.337 2.294,0.431 4.63,0.691 6.957,0.988 9.342,1.019 18.838,1.295 28.365,1.285 9.534,-0.013 19.115,-0.23 28.728,-0.275 9.615,-0.014 19.274,0.164 28.915,0.989 4.815,0.492 9.633,1.016 14.4,1.955 2.393,0.385 4.75,0.999 7.118,1.525 1.18,0.283 2.342,0.651 3.512,0.971 1.169,0.333 2.342,0.645 3.485,1.071 l 3.448,1.187 c 1.141,0.419 2.256,0.913 3.384,1.366 l 1.687,0.694 c 0.56,0.238 1.096,0.53 1.646,0.792 l 3.274,1.615 3.155,1.841 1.574,0.924 1.501,1.042 2.994,2.089 2.835,2.301 1.415,1.151 1.32,1.26 2.639,2.52 2.431,2.716 c 0.808,0.908 1.634,1.801 2.335,2.794 l 2.195,2.907 0.548,0.726 0.494,0.764 0.98,1.532 1.968,3.059 1.827,3.104 c 4.843,8.292 9.422,16.708 14.444,24.839 2.498,4.072 5.076,8.089 7.791,12.002 2.734,3.899 5.609,7.692 8.679,11.304 6.147,7.194 13.109,13.738 21.151,18.493 4.034,2.355 8.261,4.253 12.744,5.581 l 1.674,0.519 0.837,0.26 0.851,0.209 3.404,0.83 c 1.136,0.267 2.297,0.434 3.443,0.657 l 1.722,0.315 1.742,0.219 c 4.627,0.667 9.324,0.845 14.018,0.838 4.696,0.019 9.41,-0.323 14.121,-0.752 9.426,-0.916 18.869,-2.374 28.41,-3.647 4.808,-0.632 9.487,-1.2 14.241,-1.858 4.744,-0.64 9.507,-1.312 14.325,-1.847 4.804,-0.575 9.682,-0.947 14.59,-1.113 4.915,-0.156 9.88,0.078 14.834,0.633 9.878,1.324 19.7,4.475 28.254,9.689 l 3.198,1.957 c 1.071,0.642 2.084,1.429 3.128,2.139 2.016,1.533 4,3.125 5.811,4.904 1.857,1.733 3.538,3.637 5.171,5.572 1.571,1.983 3.104,4.001 4.44,6.137 5.471,8.496 8.968,17.946 11.43,27.429 2.425,9.514 3.902,19.119 5.268,28.624 l 1.019,7.111 0.973,7.187 c 0.585,4.799 1.083,9.608 1.479,14.413 0.828,9.611 1.353,19.214 1.869,28.787 0.493,9.576 0.952,19.126 1.664,28.641 0.162,2.382 0.383,4.753 0.577,7.129 l 0.673,7.126 c 0.479,4.816 0.806,9.609 1.215,14.357 0.111,1.283 0.231,2.564 0.36,3.844 z"
             style="fill:#ffffff;fill-opacity:1;fill-rule:nonzero;stroke:none"
             id="path78" /></g></g></g></g></svg>
