<?xml version="1.0" encoding="UTF-8" standalone="no"?>
<!-- Created with Inkscape (http://www.inkscape.org/) -->

<svg
   version="1.1"
   id="svg2"
   width="2304"
   height="1632"
   viewBox="0 0 2304 1632"
   sodipodi:docname="logo Ara Ware curvas.ai"
   xmlns:inkscape="http://www.inkscape.org/namespaces/inkscape"
   xmlns:sodipodi="http://sodipodi.sourceforge.net/DTD/sodipodi-0.dtd"
   xmlns="http://www.w3.org/2000/svg"
   xmlns:svg="http://www.w3.org/2000/svg">
  <defs
     id="defs6">
    <linearGradient
       x1="0"
       y1="0"
       x2="1"
       y2="0"
       gradientUnits="userSpaceOnUse"
       gradientTransform="matrix(70.804329,-137.41284,-137.41284,-70.804329,399.53479,709.16687)"
       spreadMethod="pad"
       id="linearGradient26">
      <stop
         style="stop-opacity:1;stop-color:#e11d25"
         offset="0"
         id="stop22" />
      <stop
         style="stop-opacity:1;stop-color:#6c092f"
         offset="1"
         id="stop24" />
    </linearGradient>
    <linearGradient
       x1="0"
       y1="0"
       x2="1"
       y2="0"
       gradientUnits="userSpaceOnUse"
       gradientTransform="matrix(68.619698,116.83894,116.83894,-68.619698,382.04837,574.2818)"
       spreadMethod="pad"
       id="linearGradient46">
      <stop
         style="stop-opacity:1;stop-color:#e11d25"
         offset="0"
         id="stop42" />
      <stop
         style="stop-opacity:1;stop-color:#6c092f"
         offset="1"
         id="stop44" />
    </linearGradient>
    <linearGradient
       x1="0"
       y1="0"
       x2="1"
       y2="0"
       gradientUnits="userSpaceOnUse"
       gradientTransform="matrix(-103.85683,12.054812,12.054812,103.85683,551.39703,594.82892)"
       spreadMethod="pad"
       id="linearGradient66">
      <stop
         style="stop-opacity:1;stop-color:#e11d25"
         offset="0"
         id="stop62" />
      <stop
         style="stop-opacity:1;stop-color:#6c092f"
         offset="1"
         id="stop64" />
    </linearGradient>
    <linearGradient
       x1="0"
       y1="0"
       x2="1"
       y2="0"
       gradientUnits="userSpaceOnUse"
       gradientTransform="matrix(-74.483971,156.90475,156.90475,74.483971,908.02667,598.11078)"
       spreadMethod="pad"
       id="linearGradient86">
      <stop
         style="stop-opacity:1;stop-color:#1672af"
         offset="0"
         id="stop82" />
      <stop
         style="stop-opacity:1;stop-color:#1b3052"
         offset="1"
         id="stop84" />
    </linearGradient>
    <linearGradient
       x1="0"
       y1="0"
       x2="1"
       y2="0"
       gradientUnits="userSpaceOnUse"
       gradientTransform="matrix(103.85683,-12.054812,-12.054812,-103.85683,766.86188,716.68298)"
       spreadMethod="pad"
       id="linearGradient106">
      <stop
         style="stop-opacity:1;stop-color:#1672af"
         offset="0"
         id="stop102" />
      <stop
         style="stop-opacity:1;stop-color:#1b3052"
         offset="1"
         id="stop104" />
    </linearGradient>
    <linearGradient
       x1="0"
       y1="0"
       x2="1"
       y2="0"
       gradientUnits="userSpaceOnUse"
       gradientTransform="matrix(75.70501,147.13637,147.13637,-75.70501,929.82574,605.7301)"
       spreadMethod="pad"
       id="linearGradient128">
      <stop
         style="stop-opacity:1;stop-color:#1672af"
         offset="0"
         id="stop122" />
      <stop
         style="stop-opacity:1;stop-color:#1672af"
         offset="0.10835295"
         id="stop124" />
      <stop
         style="stop-opacity:1;stop-color:#1b3052"
         offset="1"
         id="stop126" />
    </linearGradient>
    <linearGradient
       x1="0"
       y1="0"
       x2="1"
       y2="0"
       gradientUnits="userSpaceOnUse"
       gradientTransform="matrix(-103.85683,-12.054812,12.054812,-103.85683,1071.6949,716.68298)"
       spreadMethod="pad"
       id="linearGradient148">
      <stop
         style="stop-opacity:1;stop-color:#1672af"
         offset="0"
         id="stop144" />
      <stop
         style="stop-opacity:1;stop-color:#1b3052"
         offset="1"
         id="stop146" />
    </linearGradient>
    <linearGradient
       x1="0"
       y1="0"
       x2="1"
       y2="0"
       gradientUnits="userSpaceOnUse"
       gradientTransform="matrix(-64.569794,-109.94315,-109.94315,64.569794,932.2594,730.4809)"
       spreadMethod="pad"
       id="linearGradient168">
      <stop
         style="stop-opacity:1;stop-color:#1672af"
         offset="0"
         id="stop164" />
      <stop
         style="stop-opacity:1;stop-color:#1b3052"
         offset="1"
         id="stop166" />
    </linearGradient>
    <linearGradient
       x1="0"
       y1="0"
       x2="1"
       y2="0"
       gradientUnits="userSpaceOnUse"
       gradientTransform="matrix(64.569794,-109.94315,109.94315,64.569794,906.57672,730.4809)"
       spreadMethod="pad"
       id="linearGradient188">
      <stop
         style="stop-opacity:1;stop-color:#1672af"
         offset="0"
         id="stop184" />
      <stop
         style="stop-opacity:1;stop-color:#1b3052"
         offset="1"
         id="stop186" />
    </linearGradient>
    <clipPath
       clipPathUnits="userSpaceOnUse"
       id="clipPath198">
      <path
         d="M 0,1224 H 1728 V 0 H 0 Z"
         id="path196" />
    </clipPath>
  </defs>
  <sodipodi:namedview
     id="namedview4"
     pagecolor="#ffffff"
     bordercolor="#000000"
     borderopacity="0.25"
     inkscape:showpageshadow="2"
     inkscape:pageopacity="0.0"
     inkscape:pagecheckerboard="0"
     inkscape:deskcolor="#d1d1d1" />
  <g
     id="g8"
     inkscape:groupmode="layer"
     inkscape:label="logo Ara Ware curvas"
     transform="matrix(1.3333333,0,0,-1.3333333,0,1632)">
    <g
       id="g10">
      <g
         id="g12">
        <g
           id="g18">
          <g
             id="g20">
            <path
               d="m 452.361,732.864 -79.535,-139.85 c -4.777,-8.398 1.289,-18.827 10.951,-18.827 v 0 h 20.448 l 56.912,101.286 c 0.599,1.064 2.129,1.069 2.732,0.008 v 0 l 36.623,-64.368 c 0.596,-1.046 -0.16,-2.345 -1.364,-2.345 v 0 h -15.057 l -14.517,25.486 c -3.089,5.426 -10.928,5.372 -13.945,-0.094 v 0 l -22.778,-41.289 c -4.633,-8.396 1.441,-18.684 11.031,-18.684 v 0 h 97.548 c 9.619,0 15.69,10.344 11,18.741 v 0 l -78.098,139.85 c -2.402,4.302 -6.701,6.456 -11.001,6.456 v 0 c -4.266,0 -8.533,-2.121 -10.95,-6.37"
               style="fill:url(#linearGradient26);stroke:none"
               id="path28" />
          </g>
        </g>
      </g>
    </g>
    <g
       id="g30">
      <g
         id="g32">
        <g
           id="g38">
          <g
             id="g40">
            <path
               d="M 433.101,698.998 372.826,593.014 c -4.777,-8.398 1.289,-18.827 10.951,-18.827 v 0 h 20.448 l 56.912,101.286 0.966,1.258 c 0,0 -4.854,20.541 -27.816,24.353 v 0 z"
               style="fill:url(#linearGradient46);stroke:none"
               id="path48" />
          </g>
        </g>
      </g>
    </g>
    <g
       id="g50">
      <g
         id="g52">
        <g
           id="g58">
          <g
             id="g60">
            <path
               d="m 455.609,634.16 -22.778,-41.289 c -4.633,-8.396 1.441,-18.684 11.031,-18.684 v 0 h 97.548 c 9.619,0 15.69,10.344 11,18.741 v 0 l -17.423,31.2 c -3.667,-19.034 -34.374,-14.301 -34.374,-14.301 v 0 c -0.207,-0.595 -0.766,-1.059 -1.485,-1.059 v 0 h -15.057 l -14.517,25.486 c -1.534,2.695 -4.24,4.038 -6.944,4.038 v 0 c -2.742,0 -5.483,-1.381 -7.001,-4.132"
               style="fill:url(#linearGradient66);stroke:none"
               id="path68" />
          </g>
        </g>
      </g>
    </g>
    <g
       id="g70">
      <g
         id="g72">
        <g
           id="g78">
          <g
             id="g80">
            <path
               d="m 911.464,732.752 -54.343,-96.714 c -0.598,-1.064 -2.128,-1.067 -2.731,-0.007 v 0 l -36.623,64.368 c -0.596,1.046 0.16,2.345 1.363,2.345 v 0 h 15.057 l 14.517,-25.487 c 3.091,-5.425 10.929,-5.372 13.946,0.096 v 0 l 22.778,41.287 c 4.632,8.397 -1.441,18.685 -11.031,18.685 v 0 h -97.548 c -9.619,0 -15.69,-10.344 -11,-18.742 v 0 l 78.098,-139.85 c 4.785,-8.569 17.098,-8.617 21.951,-0.085 v 0 l 74.338,130.712 -13.144,23.392 c -1.587,2.824 -4.574,4.573 -7.814,4.573 v 0 c -3.239,0 -6.226,-1.749 -7.814,-4.573"
               style="fill:url(#linearGradient86);stroke:none"
               id="path88" />
          </g>
        </g>
      </g>
    </g>
    <g
       id="g90">
      <g
         id="g92">
        <g
           id="g98">
          <g
             id="g100">
            <path
               d="m 776.849,737.325 c -9.619,0 -15.69,-10.344 -11,-18.742 v 0 l 17.423,-31.198 c 3.666,19.033 34.374,14.299 34.374,14.299 v 0 c 0.206,0.597 0.765,1.06 1.484,1.06 v 0 h 15.057 l 14.517,-25.487 c 3.091,-5.425 10.929,-5.372 13.946,0.096 v 0 l 22.778,41.287 c 4.632,8.397 -1.441,18.685 -11.031,18.685 v 0 z"
               style="fill:url(#linearGradient106);stroke:none"
               id="path108" />
          </g>
        </g>
      </g>
    </g>
    <g
       id="g110">
      <g
         id="g112">
        <g
           id="g118">
          <g
             id="g120">
            <path
               d="m 964.159,737.325 c -9.589,0 -15.663,-10.288 -11.03,-18.685 v 0 l 22.778,-41.287 c 3.016,-5.468 10.855,-5.521 13.945,-0.096 v 0 l 14.517,25.487 h 15.057 c 1.204,0 1.959,-1.299 1.364,-2.345 v 0 l -36.623,-64.368 c -0.603,-1.06 -2.134,-1.057 -2.731,0.007 v 0 l -54.344,96.714 c -1.587,2.824 -4.574,4.573 -7.814,4.573 v 0 c -3.239,0 -6.226,-1.749 -7.814,-4.573 v 0 L 898.321,709.36 972.659,578.648 c 4.853,-8.532 17.166,-8.484 21.951,0.085 v 0 l 78.098,139.85 c 4.69,8.398 -1.381,18.742 -11,18.742 v 0 z"
               style="fill:url(#linearGradient128);stroke:none"
               id="path130" />
          </g>
        </g>
      </g>
    </g>
    <g
       id="g132">
      <g
         id="g134">
        <g
           id="g140">
          <g
             id="g142">
            <path
               d="m 964.159,737.325 c -9.589,0 -15.663,-10.288 -11.03,-18.685 v 0 l 22.778,-41.287 c 3.016,-5.468 10.855,-5.521 13.945,-0.096 v 0 l 14.517,25.487 h 15.057 c 0.72,0 1.278,-0.463 1.485,-1.06 v 0 c 0,0 30.707,4.734 34.374,-14.299 v 0 l 17.423,31.198 c 4.69,8.398 -1.381,18.742 -11,18.742 v 0 z"
               style="fill:url(#linearGradient148);stroke:none"
               id="path150" />
          </g>
        </g>
      </g>
    </g>
    <g
       id="g152">
      <g
         id="g154">
        <g
           id="g160">
          <g
             id="g162">
            <path
               d="m 911.605,733.066 -54.344,-96.715 -0.965,-1.256 c 0,0 4.855,-20.542 27.815,-24.353 v 0 l 1.187,2.085 55.078,96.846 -13.144,23.393 c -1.587,2.824 -4.575,4.572 -7.814,4.572 v 0 c -3.24,0 -6.227,-1.748 -7.813,-4.572"
               style="fill:url(#linearGradient168);stroke:none"
               id="path170" />
          </g>
        </g>
      </g>
    </g>
    <g
       id="g172">
      <g
         id="g174">
        <g
           id="g180">
          <g
             id="g182">
            <path
               d="m 911.605,733.066 -13.145,-23.393 55.078,-96.846 1.186,-2.085 c 22.962,3.811 27.817,24.353 27.817,24.353 v 0 l -0.966,1.256 -54.343,96.715 c -1.587,2.824 -4.575,4.572 -7.814,4.572 v 0 c -3.24,0 -6.227,-1.748 -7.813,-4.572"
               style="fill:url(#linearGradient188);stroke:none"
               id="path190" />
          </g>
        </g>
      </g>
    </g>
    <g
       id="g192">
      <g
         id="g194"
         clip-path="url(#clipPath198)">
        <g
           id="g200"
           transform="translate(572.7334,635.8682)">
          <path
             d="m 0,0 c 0,6.72 1.104,12.688 3.314,17.902 2.209,5.211 5.253,9.6 9.138,13.169 3.881,3.566 8.566,6.276 14.057,8.127 5.489,1.853 11.513,2.779 18.075,2.779 8.033,0 14.29,-0.894 18.777,-2.675 4.484,-1.784 7.732,-3.704 9.741,-5.762 1.205,-1.373 2.14,-2.813 2.811,-4.321 0.669,-1.511 1.004,-3.292 1.004,-5.35 0,-2.057 -0.301,-3.98 -0.903,-5.762 -0.603,-1.784 -1.341,-3.362 -2.21,-4.732 -0.872,-1.373 -1.707,-2.54 -2.51,-3.498 -0.803,-0.961 -1.406,-1.647 -1.807,-2.058 -2.279,1.097 -5.021,2.125 -8.235,3.087 -3.212,0.958 -6.762,1.441 -10.643,1.441 -5.09,0 -9.408,-1.512 -12.954,-4.528 -3.549,-3.018 -5.322,-8.024 -5.322,-15.02 V -65.845 H 0 Z"
             style="fill:#231f20;fill-opacity:1;fill-rule:nonzero;stroke:none"
             id="path202" />
        </g>
        <g
           id="g204"
           transform="translate(721.144,613.6455)">
          <path
             d="m 0,0 c -1.205,0.273 -2.981,0.515 -5.322,0.721 -2.344,0.205 -5.858,0.308 -10.543,0.308 -4.017,0 -7.299,-0.344 -9.841,-1.029 -2.545,-0.687 -4.519,-1.614 -5.924,-2.777 -1.406,-1.167 -2.379,-2.505 -2.912,-4.013 -0.537,-1.511 -0.804,-3.087 -0.804,-4.732 0,-1.236 0.201,-2.541 0.603,-3.911 0.402,-1.373 1.271,-2.607 2.611,-3.703 1.337,-1.099 3.345,-2.026 6.025,-2.778 2.676,-0.756 6.225,-1.132 10.643,-1.132 3.48,0 6.693,0.104 9.64,0.309 2.944,0.206 4.886,0.444 5.824,0.72 z m 32.333,-43.005 c -0.803,-0.276 -2.61,-0.585 -5.422,-0.926 -2.811,-0.34 -6.326,-0.72 -10.543,-1.132 -4.218,-0.412 -9.038,-0.752 -14.46,-1.029 -5.423,-0.273 -11.146,-0.411 -17.171,-0.411 -10.176,0 -18.611,0.926 -25.304,2.777 -6.697,1.853 -12.05,4.354 -16.066,7.511 -4.017,3.154 -6.828,6.822 -8.435,11.009 -1.607,4.183 -2.41,8.606 -2.41,13.271 0,12.62 3.947,21.638 11.849,27.059 7.898,5.417 20.415,8.128 37.555,8.128 4.283,0 7.863,-0.071 10.744,-0.206 2.877,-0.139 5.253,-0.344 7.129,-0.617 0,4.8 -1.907,8.571 -5.723,11.317 -3.816,2.742 -10.142,4.115 -18.978,4.115 -4.152,0 -7.802,-0.241 -10.946,-0.72 -3.147,-0.483 -5.824,-1.064 -8.033,-1.749 -2.209,-0.688 -3.985,-1.372 -5.322,-2.058 -1.339,-0.688 -2.278,-1.234 -2.811,-1.646 -0.27,0.274 -0.804,0.823 -1.607,1.646 -0.803,0.823 -1.607,1.885 -2.41,3.189 -0.803,1.303 -1.541,2.779 -2.209,4.424 -0.672,1.647 -1.004,3.428 -1.004,5.351 0,11.934 11.914,17.901 35.747,17.901 7.764,0 15.062,-0.72 21.891,-2.16 6.828,-1.44 12.752,-3.91 17.773,-7.408 5.02,-3.498 8.968,-8.128 11.849,-13.889 2.877,-5.762 4.317,-12.964 4.317,-21.605 z"
             style="fill:#231f20;fill-opacity:1;fill-rule:nonzero;stroke:none"
             id="path206" />
        </g>
        <g
           id="g208"
           transform="translate(1114.8486,613.6455)">
          <path
             d="m 0,0 c -1.205,0.273 -2.981,0.515 -5.322,0.721 -2.344,0.205 -5.859,0.308 -10.543,0.308 -4.017,0 -7.299,-0.344 -9.841,-1.029 -2.545,-0.687 -4.519,-1.614 -5.924,-2.777 -1.406,-1.167 -2.379,-2.505 -2.912,-4.013 -0.537,-1.511 -0.804,-3.087 -0.804,-4.732 0,-1.236 0.201,-2.541 0.603,-3.911 0.401,-1.373 1.27,-2.607 2.61,-3.703 1.337,-1.099 3.346,-2.026 6.026,-2.778 2.676,-0.756 6.225,-1.132 10.643,-1.132 3.481,0 6.693,0.104 9.64,0.309 2.943,0.206 4.886,0.444 5.824,0.72 z m 32.333,-43.005 c -0.803,-0.276 -2.61,-0.585 -5.422,-0.926 -2.811,-0.34 -6.326,-0.72 -10.544,-1.132 -4.217,-0.412 -9.037,-0.752 -14.459,-1.029 -5.423,-0.273 -11.146,-0.411 -17.171,-0.411 -10.176,0 -18.611,0.926 -25.304,2.777 -6.697,1.853 -12.05,4.354 -16.067,7.511 -4.016,3.154 -6.828,6.822 -8.434,11.009 -1.607,4.183 -2.411,8.606 -2.411,13.271 0,12.62 3.949,21.638 11.85,27.059 7.898,5.417 20.415,8.128 37.555,8.128 4.283,0 7.863,-0.071 10.744,-0.206 2.877,-0.139 5.253,-0.344 7.129,-0.617 0,4.8 -1.907,8.571 -5.724,11.317 -3.815,2.742 -10.141,4.115 -18.977,4.115 -4.152,0 -7.801,-0.241 -10.946,-0.72 -3.147,-0.483 -5.824,-1.064 -8.033,-1.749 -2.209,-0.688 -3.985,-1.372 -5.322,-2.058 -1.34,-0.688 -2.277,-1.234 -2.812,-1.646 -0.269,0.274 -0.802,0.823 -1.606,1.646 -0.803,0.823 -1.607,1.885 -2.41,3.189 -0.803,1.303 -1.54,2.779 -2.209,4.424 -0.671,1.647 -1.004,3.428 -1.004,5.351 0,11.934 11.915,17.901 35.747,17.901 7.764,0 15.062,-0.72 21.891,-2.16 6.828,-1.44 12.752,-3.91 17.773,-7.408 5.02,-3.498 8.968,-8.128 11.849,-13.889 2.877,-5.762 4.317,-12.964 4.317,-21.605 z"
             style="fill:#231f20;fill-opacity:1;fill-rule:nonzero;stroke:none"
             id="path210" />
        </g>
        <g
           id="g212"
           transform="translate(1169.2705,635.8682)">
          <path
             d="m 0,0 c 0,6.72 1.104,12.688 3.313,17.902 2.209,5.211 5.253,9.6 9.138,13.169 3.882,3.566 8.567,6.276 14.058,8.127 5.488,1.853 11.513,2.779 18.074,2.779 8.033,0 14.291,-0.894 18.777,-2.675 4.485,-1.784 7.733,-3.704 9.741,-5.762 1.205,-1.373 2.14,-2.813 2.811,-4.321 0.669,-1.511 1.005,-3.292 1.005,-5.35 0,-2.057 -0.302,-3.98 -0.904,-5.762 -0.603,-1.784 -1.34,-3.362 -2.209,-4.732 -0.872,-1.373 -1.707,-2.54 -2.51,-3.498 C 70.49,8.916 69.888,8.23 69.486,7.819 c -2.278,1.097 -5.02,2.125 -8.234,3.087 -3.213,0.958 -6.762,1.441 -10.644,1.441 -5.089,0 -9.407,-1.512 -12.953,-4.528 -3.55,-3.018 -5.322,-8.024 -5.322,-15.02 V -65.845 H 0 Z"
             style="fill:#231f20;fill-opacity:1;fill-rule:nonzero;stroke:none"
             id="path214" />
        </g>
        <g
           id="g216"
           transform="translate(1283.9414,630.1074)">
          <path
             d="m 0,0 c 8.969,0 15.932,0.34 20.887,1.028 4.951,0.685 8.634,1.576 11.045,2.675 2.41,1.097 3.881,2.331 4.418,3.704 0.534,1.369 0.803,2.742 0.803,4.115 0,2.881 -1.273,5.382 -3.815,7.511 -2.545,2.125 -6.36,3.19 -11.447,3.19 -3.616,0 -6.763,-0.654 -9.44,-1.955 C 9.771,18.962 7.531,17.284 5.724,15.227 3.916,13.169 2.542,10.803 1.606,8.127 0.669,5.452 0.132,2.742 0,0 m 1.606,-21.4 c 0.268,-1.646 0.97,-3.26 2.11,-4.835 1.136,-1.579 2.742,-3.055 4.819,-4.424 2.074,-1.373 4.72,-2.47 7.933,-3.293 3.214,-0.823 7.095,-1.235 11.648,-1.235 3.48,0 6.759,0.309 9.841,0.926 3.078,0.617 5.755,1.267 8.033,1.955 2.275,0.685 4.149,1.369 5.623,2.058 1.472,0.685 2.341,1.164 2.611,1.44 L 65.47,-51.854 c -1.074,-0.688 -2.846,-1.646 -5.322,-2.88 -2.479,-1.235 -5.591,-2.469 -9.338,-3.704 -3.75,-1.235 -8.134,-2.295 -13.155,-3.19 -5.02,-0.89 -10.543,-1.337 -16.568,-1.337 -7.499,0 -14.528,1.235 -21.087,3.704 -6.562,2.469 -12.285,6.07 -17.171,10.803 -4.889,4.732 -8.735,10.525 -11.547,17.387 -2.811,6.858 -4.218,14.676 -4.218,23.457 0,8.231 1.407,15.773 4.218,22.635 2.812,6.857 6.693,12.686 11.648,17.49 4.952,4.8 10.775,8.539 17.472,11.214 6.693,2.674 13.923,4.012 21.69,4.012 7.229,0 13.721,-0.997 19.479,-2.983 5.755,-1.99 10.61,-4.701 14.561,-8.128 3.947,-3.431 6.96,-7.34 9.037,-11.729 2.074,-4.391 3.112,-8.918 3.112,-13.581 0,-5.076 -0.872,-9.638 -2.61,-13.683 C 63.93,-6.415 60.816,-9.845 56.332,-12.655 51.846,-15.469 45.755,-17.629 38.057,-19.137 30.356,-20.647 20.551,-21.4 8.636,-21.4 Z"
             style="fill:#231f20;fill-opacity:1;fill-rule:nonzero;stroke:none"
             id="path218" />
        </g>
      </g>
    </g>
  </g>
</svg>
